<svg width="22" height="10" viewBox="0 0 22 10" fill="none" xmlns="http://www.w3.org/2000/svg">
<path fill-rule="evenodd" clip-rule="evenodd" d="M16.2261 0.219461C16.5191 -0.0733169 16.994 -0.0731296 17.2867 0.219879L21.2805 4.21683C21.5732 4.50968 21.5732 4.98423 21.2805 5.27708L17.2805 9.28013C16.9878 9.57313 16.5129 9.57331 16.2199 9.28053C15.9269 8.98775 15.9267 8.51288 16.2195 8.21987L19.6898 4.74694L16.2257 1.28012C15.9329 0.987112 15.9331 0.512239 16.2261 0.219461Z" fill="white"/>
<path fill-rule="evenodd" clip-rule="evenodd" d="M0 4.75C0 4.33579 0.335786 4 0.75 4H20.75C21.1642 4 21.5 4.33579 21.5 4.75C21.5 5.16421 21.1642 5.5 20.75 5.5H0.75C0.335786 5.5 0 5.16421 0 4.75Z" fill="white"/>
</svg>
