<svg width="66" height="66" viewBox="0 0 66 66" fill="none" xmlns="http://www.w3.org/2000/svg">
<circle opacity="0.7" cx="33" cy="33" r="33" fill="#FFF0E3"/>
<path opacity="0.4" fill-rule="evenodd" clip-rule="evenodd" d="M26.4032 42.3041C26.4032 41.3941 27.1399 40.6575 28.0499 40.6575C28.949 40.6575 29.6857 41.3941 29.6857 42.3041C29.6857 43.2033 28.949 43.94 28.0499 43.94C27.1399 43.94 26.4032 43.2033 26.4032 42.3041ZM38.5907 42.3041C38.5907 41.3941 39.3274 40.6575 40.2374 40.6575C41.1365 40.6575 41.8732 41.3941 41.8732 42.3041C41.8732 43.2033 41.1365 43.94 40.2374 43.94C39.3274 43.94 38.5907 43.2033 38.5907 42.3041Z" fill="#1E1C1A"/>
<path fill-rule="evenodd" clip-rule="evenodd" d="M41.8734 26.8781C42.5342 26.8781 42.9676 27.1056 43.4009 27.604C43.8342 28.1023 43.91 28.8173 43.8125 29.4662L42.7834 36.5729C42.5884 37.939 41.4184 38.9454 40.0426 38.9454H28.2234C26.7826 38.9454 25.5909 37.8404 25.4717 36.4115L24.4751 24.602L22.8392 24.3204C22.4059 24.2445 22.1026 23.822 22.1784 23.3887C22.2542 22.9445 22.6767 22.652 23.1209 22.717L25.7046 23.107C26.073 23.1731 26.3438 23.4754 26.3763 23.8437L26.5821 26.2704C26.6146 26.6181 26.8963 26.8781 27.243 26.8781H41.8734ZM35.3084 32.5103H38.3092C38.7642 32.5103 39.1217 32.1419 39.1217 31.6978C39.1217 31.2428 38.7642 30.8853 38.3092 30.8853H35.3084C34.8534 30.8853 34.4959 31.2428 34.4959 31.6978C34.4959 32.1419 34.8534 32.5103 35.3084 32.5103Z" fill="#1E1C1A"/>
</svg>
