<svg width="39" height="17" viewBox="0 0 39 17" fill="none" xmlns="http://www.w3.org/2000/svg">
<path fill-rule="evenodd" clip-rule="evenodd" d="M29.0625 0.392719C29.5869 -0.131199 30.4366 -0.130864 30.9605 0.393468L38.1073 7.54591C38.631 8.06995 38.631 8.91916 38.1073 9.44319L30.9494 16.6065C30.4255 17.1309 29.5757 17.1312 29.0514 16.6073C28.5271 16.0833 28.5268 15.2336 29.0507 14.7092L35.2607 8.49453L29.0618 2.29074C28.5379 1.76641 28.5382 0.916637 29.0625 0.392719Z" fill="#1E1C1A"/>
<path fill-rule="evenodd" clip-rule="evenodd" d="M0.0263672 8.49982C0.0263672 7.7586 0.627248 7.15771 1.36847 7.15771H37.1579C37.8992 7.15771 38.5 7.7586 38.5 8.49982C38.5 9.24104 37.8992 9.84193 37.1579 9.84193H1.36847C0.627248 9.84193 0.0263672 9.24104 0.0263672 8.49982Z" fill="#1E1C1A"/>
</svg>
