<svg width="40" height="17" viewBox="0 0 40 17" fill="none" xmlns="http://www.w3.org/2000/svg">
<path fill-rule="evenodd" clip-rule="evenodd" d="M10.0954 16.6073C9.5711 17.1312 8.72133 17.1309 8.19741 16.6065L1.05062 9.45409C0.526984 8.93005 0.526991 8.08084 1.05063 7.55681L8.20852 0.393455C8.73245 -0.130869 9.58222 -0.131193 10.1065 0.392733C10.6309 0.916657 10.6312 1.76643 10.1073 2.29076L3.89729 8.50547L10.0962 14.7093C10.6201 15.2336 10.6198 16.0834 10.0954 16.6073Z" fill="#1E1C1A"/>
<path fill-rule="evenodd" clip-rule="evenodd" d="M39.1316 8.50018C39.1316 9.2414 38.5307 9.84229 37.7895 9.84229L2.00002 9.84228C1.25879 9.84228 0.657909 9.2414 0.65791 8.50018C0.65791 7.75895 1.25879 7.15807 2.00002 7.15807L37.7895 7.15807C38.5307 7.15807 39.1316 7.75896 39.1316 8.50018Z" fill="#1E1C1A"/>
</svg>
