<svg width="85" height="41" viewBox="0 0 85 41" fill="none" xmlns="http://www.w3.org/2000/svg">
<path d="M6.56758 0.569444H15.1515L21.7191 40.4306H15.382L14.2298 32.5153V32.6292H7.02846L5.87625 40.4306H0L6.56758 0.569444ZM13.4808 27.2194L10.6579 7.51667H10.5427L7.7774 27.2194H13.4808Z" fill="white"/>
<path d="M27.6741 0.569444H34.0113V17.3681L42.0767 0.569444H48.4138L40.8669 15.2042L48.5291 40.4306H41.9039L36.5461 22.6639L34.0113 27.7319V40.4306H27.6741V0.569444Z" fill="white"/>
<path d="M62.496 41C59.4234 41 57.0806 40.1458 55.4675 38.4375C53.8544 36.6912 53.0479 34.2046 53.0479 30.9778V10.0222C53.0479 6.79537 53.8544 4.32778 55.4675 2.61944C57.0806 0.873148 59.4234 0 62.496 0C65.5685 0 67.9113 0.873148 69.5244 2.61944C71.1375 4.32778 71.9441 6.79537 71.9441 10.0222V13.4389H65.9526V9.62361C65.9526 7.00417 64.858 5.69445 62.6688 5.69445C60.4796 5.69445 59.385 7.00417 59.385 9.62361V31.4333C59.385 34.0148 60.4796 35.3056 62.6688 35.3056C64.858 35.3056 65.9526 34.0148 65.9526 31.4333V23.6319H62.784V17.9375H71.9441V30.9778C71.9441 34.2046 71.1375 36.6912 69.5244 38.4375C67.9113 40.1458 65.5685 41 62.496 41Z" fill="white"/>
<path d="M78.8933 34.3944H85V40.4306H78.8933V34.3944Z" fill="white"/>
</svg>
