<svg width="91" height="66" viewBox="0 0 91 66" fill="none" xmlns="http://www.w3.org/2000/svg">
<g opacity="0.3">
<path fill-rule="evenodd" clip-rule="evenodd" d="M16.943 55.6004C16.3114 56.0991 15.758 56.6509 15.2837 57.3231C14.942 57.8085 14.4603 58.2261 13.9107 58.5752C13.3072 58.958 12.8536 59.5822 12.2282 59.9823C11.8417 60.2291 11.5758 60.831 10.9756 60.3646C10.7064 60.517 10.4372 60.6694 10.0988 60.8612C9.89042 60.6077 9.68581 60.3642 9.48947 60.1152C9.44764 60.0622 9.41657 59.9305 9.40829 59.933C8.73066 60.1256 8.35663 59.3191 7.68397 59.4256C7.31823 59.4836 6.7603 59.0826 6.80089 58.7815C6.88291 58.173 6.47657 57.9109 6.13113 57.5538C5.99734 56.7962 6.2003 56.0962 6.54243 55.4025C6.88001 54.7174 7.09829 53.9697 7.46527 53.3029C8.20959 51.9493 9.01314 50.6288 9.80261 49.3004C10.6173 47.9294 11.488 46.5978 12.4121 45.2955C13.2554 44.1064 14.0685 42.8948 14.9101 41.7032C15.4229 40.9771 15.9237 40.2419 16.424 39.5067C16.4456 39.4752 16.4058 39.4031 16.3694 39.2325C16.113 39.4396 15.9162 39.7208 15.6801 39.7585C15.3699 39.8086 15.1131 39.7949 15.0775 40.1822C14.5465 40.0053 14.4678 40.8325 13.9517 40.6892C13.8063 41.0139 13.4878 41.2326 13.2189 41.3192C12.9033 41.4215 12.6295 41.4198 12.5189 41.8125C12.4879 41.9235 12.1872 42.0697 12.0741 42.0275C11.5795 41.8423 11.5895 42.4827 11.2577 42.4897C10.8563 42.498 10.6426 42.6695 10.6107 43.068C10.0963 43.1682 9.80302 43.6147 9.37971 43.8628C9.0148 44.0761 8.59521 44.3164 8.40095 44.6589C8.27669 44.8788 8.1777 44.958 7.97847 45.0251C7.32859 45.245 6.89989 45.7992 6.31421 46.1326C5.72356 46.4685 5.23231 46.9776 4.69137 47.4038C4.01166 47.9398 3.32865 48.472 2.64273 49.0006C2.23101 49.3178 1.77829 49.1609 1.41959 48.9649C1.14746 48.8162 0.983853 48.5615 0.633025 48.8034C0.58622 48.8353 0.357995 48.6054 0.141782 48.4418C0.344741 48.3006 0.521605 48.178 0.699297 48.0549C0.669889 48.0052 0.640894 47.9551 0.611072 47.9054C0.436693 47.9696 0.262729 48.0338 0.0630838 48.1071C0.0473441 48.0417 -0.0222417 47.9245 0.00716663 47.8429C0.077995 47.6478 0.159178 47.4349 0.299593 47.2903C1.08616 46.4797 1.85409 45.6459 2.69782 44.8983C4.1177 43.64 5.56533 42.409 7.049 41.2264C8.06379 40.4171 9.10013 39.6301 10.134 38.8464C11.0643 38.141 12.036 37.4667 12.9849 36.7845C14.2018 35.9097 15.4432 35.0809 16.7007 34.2724C17.5001 33.7584 18.3198 33.2767 19.1317 32.7821C19.6689 32.4553 20.2662 32.5762 20.8444 32.5526C21.247 32.7709 21.4632 33.1818 22.0211 33.2878C22.6565 33.4092 23.8349 35.1273 23.9273 35.8343C23.9956 36.3579 23.7102 36.8578 23.5504 37.3615C23.2708 38.2438 22.8781 39.0614 22.273 39.7701C22.2079 39.8467 22.1234 39.9784 22.1483 40.0488C22.3562 40.6329 21.662 40.8346 21.6314 41.3101C21.0345 41.6576 20.7603 42.2789 20.366 42.7987C20.2985 42.8878 20.1382 42.9598 20.1386 43.0394C20.1469 44.0807 19.3147 44.6647 18.8484 45.4451C18.703 45.6886 18.5004 45.9019 18.3824 46.1562C18.3008 46.331 18.3198 46.5518 18.2941 46.7519C18.4565 46.7717 18.5588 46.8161 18.5953 46.7842C19.3723 46.1078 20.1059 45.3751 20.9218 44.7513C21.9847 43.9394 22.9096 42.9636 24.0549 42.2458C24.602 41.9024 25.0121 41.3602 25.5551 40.9659C26.5562 40.2394 27.4103 39.3045 28.4301 38.6099C30.1826 37.417 31.6484 35.8472 33.516 34.815C34.0019 34.0421 34.9111 33.7588 35.5021 33.1019C35.6612 32.9246 35.9168 32.8364 36.1185 32.6943C36.4117 32.488 36.7008 32.2759 36.9837 32.056C38.1236 31.1704 39.2577 30.2774 40.3992 29.3943C40.8814 29.022 41.3896 28.6823 41.8647 28.3013C43.2063 27.2256 44.6262 26.2584 46.0154 25.2486C46.7382 24.7234 47.3715 24.0801 48.2227 23.7446C48.8175 22.8761 49.7884 22.473 50.5844 21.8555C51.547 21.1091 52.5378 20.3987 53.5211 19.6788C54.7911 18.749 56.0635 17.8228 57.3388 16.9004C58.1486 16.3151 58.9629 15.7356 59.7801 15.1603C60.7709 14.4628 61.7849 13.8001 62.7632 13.0819C64.2506 11.9904 65.8076 10.9935 67.3401 9.96417C69.2533 8.6789 71.1653 7.39156 73.0905 6.12411C74.1512 5.42576 75.2327 4.75807 76.3134 4.09079C77.6007 3.29594 78.8831 2.49032 80.1953 1.7373C81.1413 1.1947 82.1163 0.708427 83.0131 0.0751134C83.2322 -0.0793836 83.653 0.0523324 84.112 0.0523324C83.991 0.24038 83.9376 0.382036 83.8369 0.469433C83.5341 0.732865 83.2123 0.975587 82.8408 1.27215C83.646 1.64701 84.1699 0.553102 84.8385 0.956119C84.6301 1.16446 84.4052 1.38896 84.1803 1.61346C84.2226 1.68014 84.2644 1.74683 84.3066 1.81352C84.5456 1.74434 84.7842 1.67517 85.1015 1.58322C85.1553 1.99908 85.2079 2.40541 85.2796 2.96417C84.9975 3.18866 84.631 3.68156 84.1708 3.79505C83.6124 3.93257 83.4381 4.62139 82.7969 4.56423C82.6299 4.54931 82.7422 5.13002 82.328 4.98961C81.884 4.83843 82.1408 5.55748 81.7431 5.4444C81.372 5.33878 81.3488 5.8321 81.2573 5.82878C80.6791 5.80973 80.5212 6.37843 80.1058 6.57642C79.663 6.78766 79.2422 7.066 78.857 7.37168C78.5132 7.64423 78.1785 7.87369 77.7316 7.94245C77.5738 7.96647 77.324 8.1276 77.3145 8.24233C77.283 8.62588 77.0457 8.56789 76.7922 8.62837C76.6099 8.67186 76.496 8.98251 76.3105 9.04008C76.0943 9.10677 75.8478 9.0463 75.91 9.39713C75.1387 9.4402 74.9482 10.5142 74.0924 10.4235C74.0092 10.4148 73.8758 10.5043 73.8294 10.5846C73.2868 11.5245 72.2778 11.8794 71.4689 12.4833C70.2901 13.3631 69.1133 14.2458 67.9291 15.1172C66.9789 15.8164 66.0325 16.5218 65.0566 17.1845C64.5381 17.5366 64.162 18.1678 63.4036 18.1028C63.3514 18.0982 63.2598 18.1761 63.2391 18.2345C62.8245 19.4042 61.4771 19.3512 60.7614 20.1266C60.6417 20.2567 60.4366 20.3184 60.3414 20.4592C59.4935 21.7151 58.0765 22.2925 56.9988 23.2778C56.2076 24.001 55.2827 24.5772 54.4299 25.2345C53.3712 26.0501 52.3278 26.8851 51.272 27.7036C51.1656 27.786 51.0198 27.82 50.8889 27.8664C49.8182 28.2449 49.0693 29.1011 48.1547 29.7129C47.9534 29.8479 47.7633 30.0749 47.6826 30.3002C47.4986 30.8138 47.0215 31.0714 46.633 31.1535C46.2188 31.24 45.9872 31.4484 45.713 31.684C45.1733 32.148 44.5321 32.5087 44.2111 33.1897C43.2324 33.801 42.3762 34.5851 41.4894 35.3058C40.7592 35.8998 39.8952 36.3596 39.3153 37.159C38.9342 37.6833 38.3059 37.9563 37.714 38.1754C37.4671 38.2669 37.231 38.32 37.0707 38.5283C36.8976 38.7528 36.7961 39.0709 36.5753 39.2109C36.333 39.3642 36.2001 39.5559 36.0257 39.7614C35.5357 40.3388 34.9943 40.8971 34.1436 40.9174C34.0756 40.9191 33.9957 40.9369 33.9439 40.9767C33.5715 41.2641 33.1723 41.5263 32.8467 41.861C32.4677 42.2495 31.9549 42.5365 31.7946 43.1148C31.7772 43.1777 31.6965 43.2266 31.6393 43.2751C31.1659 43.6756 30.697 44.0823 30.2144 44.4713C29.7311 44.8606 29.3666 45.3593 28.8157 45.7081C28.3116 46.0266 27.8394 46.44 27.3357 46.7896C27.0379 46.9739 26.5848 47.0919 26.4721 47.3554C26.1312 48.1527 25.092 48.1755 24.805 48.9807C24.0271 49.1787 23.6825 49.9574 23.0218 50.314C22.8375 50.4134 22.5786 50.4793 22.4921 50.6367C22.0261 51.4866 20.9964 51.7533 20.5242 52.5842C19.8549 52.735 19.5252 53.273 19.1039 53.7415C18.7875 54.0936 18.2946 54.2866 17.8804 54.55C17.8592 55.1606 17.2094 55.2094 16.943 55.6004" fill="#726C65"/>
<path fill-rule="evenodd" clip-rule="evenodd" d="M89.4659 13.126C89.8279 13.046 90.1899 12.9661 90.7192 12.8489C90.5163 13.0796 90.4479 13.1579 90.3572 13.261C90.4931 13.3066 90.6211 13.3496 90.754 13.394C90.8464 13.7522 90.9756 14.1735 90.5627 14.364C90.3514 14.4614 90.0176 14.2936 89.7078 14.3694C89.8474 14.4373 89.9874 14.5053 90.1439 14.5811C89.6788 15.1431 89.0571 15.2351 88.3761 15.1357C88.3504 15.39 88.3322 15.5681 88.3065 15.8191C87.8174 15.3999 87.4433 15.9185 86.8987 15.8783C87.0184 16.1128 87.095 16.2636 87.172 16.4143C86.9956 16.5295 86.8046 16.6993 86.5814 16.7892C86.2624 16.9176 86.0338 17.4801 85.5703 17.0331C85.5484 17.0124 85.4552 17.0369 85.4171 17.0675C85.3292 17.1375 85.2688 17.2572 85.1727 17.2978C84.8198 17.4461 84.3956 17.4954 84.1165 17.7253C83.8692 17.9291 83.8075 18.3433 83.6082 18.6262C83.4927 18.7902 83.2814 18.9066 83.0897 18.9923C82.8859 19.0838 82.132 19.4583 82.0297 19.7043C81.9179 19.9719 81.7431 19.8605 81.5878 19.9077C81.389 19.9682 81.1715 20.0195 81.0116 20.1413C80.8903 20.2337 80.8468 20.4292 80.7743 20.5683C80.5825 20.3989 80.3957 20.2333 80.0689 19.9441C80.1161 20.3878 79.6957 20.4536 79.8883 20.8852C80.0026 21.1416 79.2964 21.5314 78.8677 21.3599C78.5745 21.2423 78.5972 21.4974 78.4593 21.5347C78.6908 22.2177 78.0807 22.2633 77.7237 22.4882C77.5472 22.5996 77.003 22.9682 76.9263 23.0635C76.8588 23.1459 76.7723 23.2126 76.701 23.2797C76.6091 23.2051 76.5316 23.1194 76.4359 23.073C76.3808 23.0465 76.2951 23.0838 76.1771 23.0979C76.2466 23.2474 76.31 23.3845 76.3692 23.5121C76.3336 23.5908 76.3229 23.6815 76.2732 23.7134C75.8884 23.9607 75.4696 24.1628 75.1113 24.4428C74.2523 25.1138 73.423 25.8225 72.5777 26.5113C71.5281 27.3658 70.4553 28.1892 69.4827 29.1378C69.0279 29.5818 68.7471 29.9028 68.6071 30.5564C68.1722 30.3307 67.6789 30.341 67.3016 29.9521C66.9685 29.6087 66.6459 30.0167 66.2714 30.1588C66.0875 29.349 66.7772 29.2036 67.0969 28.8259C66.9901 28.7194 66.8836 28.613 66.7859 28.5148C66.5626 28.6759 66.3406 28.8354 66.0652 29.0338C66.0179 28.837 65.9413 28.7099 65.9774 28.6391C66.3849 27.8359 67.0543 27.2589 67.7207 26.684C67.9096 26.5217 68.142 26.4086 68.325 26.2408C69.7909 24.8963 71.4133 23.7606 73.0184 22.5917C74.5169 21.5007 76.0992 20.5398 77.5928 19.4483C78.0252 19.1327 78.6155 19.0677 78.9294 18.5794C80.3812 18.0877 81.3612 16.7838 82.8594 16.3646C83.0636 16.6769 82.8167 16.7101 82.5404 16.7925C82.376 16.8418 82.4385 17.0903 82.1805 17.2266C81.0924 17.8023 80.0701 18.5031 79.0276 19.1642C78.9584 19.2081 78.9187 19.2988 78.7302 19.5415C79.0533 19.4285 79.1709 19.3647 79.2943 19.3477C79.7379 19.2889 79.9272 18.8175 80.4073 18.7392C80.7896 18.6767 81.1533 18.3387 81.4685 18.0591C82.142 17.4618 82.989 17.1736 83.742 16.7196C84.2507 16.4131 84.6831 15.9877 85.2841 15.8063C85.5173 15.7359 85.6643 15.3834 85.8507 15.1593C86.2376 14.9336 86.6332 14.7211 87.0084 14.4775C87.353 14.2547 87.766 14.2228 88.0733 13.8305C88.3749 13.4453 89.0492 13.4764 89.4659 13.126" fill="#726C65"/>
<path fill-rule="evenodd" clip-rule="evenodd" d="M42.4726 43.6263C42.8255 43.3869 43.3461 43.2204 43.4898 42.8899C43.692 42.4252 44.0722 42.2909 44.3994 42.0486C44.7391 41.7972 45.1193 41.6021 45.4689 41.3644C45.8243 41.1229 46.202 40.8967 46.5027 40.5973C47.1505 39.9528 47.8841 39.428 48.6425 38.9314C48.8152 38.8175 49.0252 38.7607 49.2029 38.6522C49.3798 38.5437 49.6146 38.4381 49.6892 38.2711C50.0595 37.4427 50.8535 37.1333 51.5473 36.7162C51.947 36.476 52.2125 36.5994 52.6424 37.0463C52.4925 37.5972 51.802 37.7492 51.6774 38.3444C51.6579 38.4364 51.2955 38.4575 51.0913 38.5093C50.7794 38.5892 50.9939 39.165 50.5694 39.0983C50.1953 39.0395 50.2045 39.3253 50.0624 39.5067C50.0185 39.563 49.7617 39.4537 49.5579 39.411C49.4402 39.645 49.2895 39.9433 49.1408 40.2386H48.7639C48.5025 40.5538 48.3041 41.0165 48.0378 41.0604C47.6372 41.1262 47.7366 41.7782 47.2466 41.6025C47.1858 41.581 47.0528 41.6713 46.9969 41.7434C46.8904 41.8813 46.8424 42.1464 46.7235 42.1766C46.2592 42.2955 46.0881 42.8153 45.6805 42.9338C44.9035 43.1595 44.3858 43.785 43.6874 44.1234C43.5474 44.1909 43.3975 44.4009 43.3917 44.5508C43.3722 45.0185 43.127 45.1137 42.7178 45.245C42.4067 45.3449 42.1089 45.7433 41.9751 46.0772C41.7958 46.5224 41.2254 46.0987 41.104 46.5837C41.0436 46.8265 40.9081 47.1996 40.5416 46.8004C40.4351 46.9068 40.2338 47.0174 40.2375 47.1193C40.2603 47.6611 39.8138 47.3761 39.6026 47.5099C39.4394 47.6561 39.9588 47.7683 39.5955 48.0032C39.0471 48.3573 38.6147 48.8917 38.0613 49.2334C37.8596 49.3581 37.756 49.4338 37.6819 49.6438C37.6376 49.7685 37.4495 49.9557 37.3721 49.9359C36.721 49.7689 36.4269 50.2523 36.0487 50.5973C36.0346 50.6102 35.8934 50.4838 35.7836 50.4014C35.6101 50.6458 35.8366 51.183 35.2721 51.1768C35.1934 51.176 35.0865 51.3118 35.0368 51.4075C34.5617 52.3159 34.5696 52.3237 33.766 52.8924C33.6211 52.9952 33.6969 53.6152 33.264 53.1256C33.2587 53.1194 33.0118 53.2532 32.9944 53.3439C32.8465 54.1139 32.156 54.4237 31.6909 54.9228C31.0829 54.8334 30.9139 55.4162 30.5336 55.6754C30.2839 55.8457 30.0043 55.9053 30.0088 56.3597C30.0121 56.6782 29.5917 56.8244 29.1767 56.6778C29.3312 56.433 29.4828 56.1928 29.6775 55.8842C29.5085 55.897 29.4339 55.8805 29.4066 55.9091C29.2604 56.0611 29.0901 56.1534 28.951 55.9505C28.9037 55.8813 28.9783 55.632 29.0628 55.5856C29.6153 55.2836 29.8605 54.7443 30.1613 54.2452C30.6102 54.2796 30.6102 54.2796 30.7726 54.6321C30.7991 54.6486 30.8488 54.6805 30.8492 54.6797C31.0576 54.3715 31.6926 54.4801 31.6085 53.7846C31.3616 53.8965 31.2307 54.1019 30.9317 54.3463C31.0037 54.0704 31.0042 53.8936 31.0895 53.783C31.2216 53.6119 31.4022 53.4723 31.5803 53.3443C31.9241 53.097 32.1863 52.762 32.2853 52.3772C32.3677 52.0582 32.446 51.8582 32.7798 51.7438C32.9526 51.6846 33.0681 51.4585 33.2098 51.3077C33.7296 51.4212 33.8634 50.7543 34.3277 50.7547C34.302 50.157 34.8902 50.0974 35.2058 49.9342C35.6366 49.7114 35.712 49.2309 36.1502 49.0234C36.6563 48.7844 37.0913 48.3768 37.5229 48.0028C38.3264 47.3053 39.103 46.5771 39.8975 45.8688C39.9989 45.7781 40.1514 45.7454 40.2553 45.6563C40.5349 45.4178 40.7892 45.1481 41.0759 44.9186C41.3062 44.7339 41.5224 44.4692 41.7233 44.3479C42.0501 44.1503 42.2969 43.9473 42.4726 43.6263" fill="#726C65"/>
<path fill-rule="evenodd" clip-rule="evenodd" d="M26.8838 57.4079C27.3071 57.5098 27.4426 57.1204 27.7011 56.9361C27.9168 56.782 28.0013 56.374 28.4942 56.5849C28.2809 56.7021 28.102 56.8007 27.7731 56.9821C28.1629 57.2103 28.3464 57.3184 28.5096 57.4141C28.1869 57.9153 27.5403 58.0901 27.8966 58.9533C27.6033 58.6844 27.525 58.612 27.4028 58.5001C27.3751 59.2917 26.9613 59.7063 26.1598 59.734C26.26 59.8339 26.3131 59.8869 26.4319 60.0062C25.8728 60.5653 25.2892 61.1071 24.7553 61.6944C24.24 62.2607 23.5532 62.6715 23.2186 63.4142C23.166 63.5318 22.8325 63.5231 22.5915 63.5815C22.6656 63.6747 22.7248 63.7497 22.7866 63.8272C22.6379 64.1809 22.2415 64.3263 22.0973 64.7492C21.9329 65.2317 21.6736 65.1713 21.1902 64.7326C21.0974 64.6481 20.8361 64.7496 20.5809 64.7715C20.6079 64.6804 20.6112 64.5011 20.7011 64.3967C20.8717 64.1987 21.0892 64.0417 21.0096 63.7336C21.2896 63.4225 21.8724 63.316 21.7067 62.7005C21.7018 62.6827 21.7527 62.6297 21.7825 62.6256C22.4908 62.5245 22.6461 61.7843 23.1527 61.4227C23.7251 61.0139 24.1074 60.3446 24.5983 59.8127C25.3484 59.0001 26.1209 58.2085 26.8838 57.4079" fill="#726C65"/>
<path fill-rule="evenodd" clip-rule="evenodd" d="M42.4726 43.6262C42.297 43.9472 42.0501 44.1502 41.7233 44.3478C41.5224 44.4691 41.3062 44.7338 41.0759 44.9185C40.7893 45.148 40.535 45.4176 40.2554 45.6562C40.1514 45.7453 39.999 45.778 39.8975 45.8687C39.1031 46.577 38.3265 47.3052 37.5229 48.0027C37.0913 48.3767 36.6564 48.7843 36.1503 49.0233C35.712 49.2308 35.6366 49.7113 35.2059 49.9341C34.8903 50.0973 34.3021 50.1569 34.3278 50.7546C33.8634 50.7542 33.7297 51.4211 33.2098 51.3076C33.2094 50.6395 33.7694 50.2878 34.189 50.0488C34.9002 49.6433 35.3484 48.9723 36.0359 48.5424C36.8362 48.042 37.467 47.2778 38.201 46.6636C39.3976 45.6624 40.6112 44.6812 41.8381 43.7178C41.9834 43.6034 42.2576 43.6527 42.4726 43.6262" fill="#726C65"/>
<path fill-rule="evenodd" clip-rule="evenodd" d="M26.8839 57.4079C26.1209 58.2085 25.3485 59.0001 24.5983 59.8127C24.1075 60.3446 23.7252 61.0139 23.1528 61.4227C22.6462 61.7843 22.4909 62.5245 21.7826 62.6256C21.7528 62.6297 21.7018 62.6827 21.7068 62.7005C21.8725 63.316 21.2897 63.4225 21.0097 63.7336C20.7343 63.9485 20.4592 64.1635 20.1494 64.4054C20.1349 64.2728 20.0732 64.1221 20.1192 64.0736C21.409 62.7105 22.3944 61.0686 23.878 59.8939C24.1411 59.686 23.9779 59.2374 24.465 59.1773C24.6828 59.1504 24.8261 58.6898 25.0461 58.4678C25.2722 58.2388 25.5638 58.0756 25.8008 57.8552C26.0207 57.6502 26.1984 57.4 26.4088 57.1838C26.6374 56.9489 26.8752 56.7215 27.1229 56.5066C27.3847 56.2792 27.663 56.0708 28.0519 55.7598C27.9016 56.5989 27.115 56.811 26.8839 57.4079" fill="#726C65"/>
<path fill-rule="evenodd" clip-rule="evenodd" d="M16.943 55.6004C17.2093 55.2094 17.8592 55.1606 17.8803 54.55C18.2945 54.2866 18.7874 54.0936 19.1039 53.7415C19.5251 53.273 19.8548 52.735 20.5242 52.5842C20.9964 51.7533 22.0261 51.4866 22.492 50.6367C22.5786 50.4793 22.8375 50.4134 23.0218 50.314C23.6825 49.9574 24.0271 49.1787 24.8049 48.9807C25.092 48.1755 26.1312 48.1527 26.4721 47.3553C26.5848 47.0919 27.0379 46.9739 27.3357 46.7896C27.2835 46.9544 27.2815 47.1772 27.1696 47.275C26.7355 47.6556 26.4265 48.1568 25.8537 48.4153C25.3347 48.6493 25.068 49.2267 24.5295 49.5378C23.8171 49.9495 23.248 50.6106 22.6196 51.1668C21.9354 51.7728 21.2851 52.4227 20.5635 52.9794C19.4974 53.8024 18.4673 54.6606 17.4852 55.6004H16.943Z" fill="#726C65"/>
<path fill-rule="evenodd" clip-rule="evenodd" d="M89.4659 13.1261C89.0492 13.4765 88.3749 13.4454 88.0733 13.8306C87.766 14.2229 87.353 14.2548 87.0084 14.4776C86.6332 14.7212 86.2376 14.9336 85.8507 15.1594C85.2 15.2609 84.7688 15.7799 84.196 16.0342C83.882 16.1738 83.6016 16.3891 83.1555 16.6625C83.2032 16.3568 83.1737 16.1522 83.2582 16.0785C83.5503 15.8229 83.8642 15.581 84.2022 15.3909C85.5637 14.6246 86.9384 13.8807 88.3061 13.1248C88.6114 12.9562 88.8968 12.7483 89.2111 12.6017C89.417 12.5056 89.6589 12.487 89.984 12.4099C89.7504 12.733 89.6084 12.9297 89.4659 13.1261" fill="#726C65"/>
</g>
</svg>
