<svg width="55" height="40" viewBox="0 0 55 40" fill="none" xmlns="http://www.w3.org/2000/svg">
<g opacity="0.3">
<path fill-rule="evenodd" clip-rule="evenodd" d="M10.2574 33.6607C9.87495 33.9626 9.53994 34.2966 9.25282 34.7036C9.04594 34.9975 8.75431 35.2502 8.42156 35.4616C8.0562 35.6933 7.78162 36.0712 7.40297 36.3135C7.16902 36.4629 7.00803 36.8273 6.64468 36.5449C6.48169 36.6372 6.31869 36.7295 6.11382 36.8456C5.98769 36.6921 5.86382 36.5447 5.74496 36.3939C5.71963 36.3619 5.70082 36.2821 5.69581 36.2836C5.28557 36.4002 5.05913 35.912 4.6519 35.9764C4.43048 36.0115 4.09271 35.7688 4.11728 35.5865C4.16693 35.2181 3.92094 35.0594 3.71181 34.8433C3.63081 34.3846 3.75368 33.9608 3.96081 33.5408C4.16518 33.1261 4.29733 32.6734 4.5195 32.2697C4.97011 31.4502 5.45658 30.6508 5.93453 29.8466C6.42777 29.0166 6.95487 28.2104 7.51431 27.4221C8.02486 26.7021 8.51709 25.9687 9.02664 25.2472C9.33708 24.8076 9.64024 24.3625 9.94316 23.9175C9.9562 23.8984 9.93213 23.8548 9.91006 23.7514C9.75484 23.8768 9.63573 24.0471 9.4928 24.0699C9.30498 24.1003 9.14951 24.092 9.12794 24.3264C8.80647 24.2194 8.75883 24.7201 8.44638 24.6334C8.35837 24.83 8.16553 24.9624 8.00279 25.0148C7.81171 25.0767 7.64596 25.0757 7.57901 25.3134C7.5602 25.3806 7.37815 25.4691 7.30969 25.4436C7.01029 25.3315 7.0163 25.7192 6.81545 25.7234C6.57246 25.7284 6.44307 25.8322 6.42376 26.0735C6.11232 26.1342 5.93478 26.4045 5.67851 26.5547C5.45759 26.6838 5.20357 26.8293 5.08596 27.0366C5.01074 27.1698 4.9508 27.2177 4.83019 27.2583C4.43675 27.3915 4.17721 27.727 3.82264 27.9288C3.46506 28.1322 3.16766 28.4404 2.84017 28.6984C2.42867 29.0229 2.01517 29.3451 1.59992 29.6651C1.35066 29.8572 1.07658 29.7621 0.859426 29.6435C0.694677 29.5535 0.595628 29.3993 0.383235 29.5457C0.354899 29.565 0.216731 29.4259 0.0858353 29.3268C0.208707 29.2413 0.315781 29.1671 0.423356 29.0926C0.405553 29.0625 0.388 29.0322 0.369945 29.0021C0.264375 29.041 0.159057 29.0798 0.0381911 29.1242C0.0286623 29.0846 -0.0134652 29.0136 0.0043387 28.9642C0.0472184 28.8461 0.0963671 28.7172 0.181374 28.6297C0.657565 28.139 1.12247 27.6342 1.63327 27.1816C2.49287 26.4198 3.36927 25.6745 4.26749 24.9586C4.88185 24.4686 5.50924 23.9922 6.13514 23.5177C6.69834 23.0907 7.28662 22.6825 7.86111 22.2695C8.59784 21.7399 9.34936 21.2381 10.1107 20.7486C10.5946 20.4374 11.0909 20.1458 11.5824 19.8464C11.9076 19.6485 12.2692 19.7218 12.6193 19.7075C12.863 19.8396 12.9939 20.0884 13.3317 20.1526C13.7163 20.226 14.4297 21.2662 14.4857 21.6942C14.527 22.0112 14.3543 22.3138 14.2575 22.6188C14.0882 23.1529 13.8505 23.6479 13.4841 24.0769C13.4448 24.1233 13.3936 24.2031 13.4086 24.2457C13.5345 24.5993 13.1143 24.7214 13.0957 25.0093C12.7344 25.2196 12.5684 25.5958 12.3296 25.9105C12.2888 25.9644 12.1917 26.008 12.192 26.0562C12.197 26.6866 11.6932 27.0401 11.4109 27.5126C11.3228 27.66 11.2002 27.7892 11.1287 27.9431C11.0793 28.049 11.0909 28.1826 11.0753 28.3037C11.1736 28.3158 11.2356 28.3426 11.2576 28.3233C11.7281 27.9138 12.1722 27.4702 12.6661 27.0926C13.3096 26.6011 13.8695 26.0103 14.5629 25.5757C14.8941 25.3678 15.1424 25.0396 15.4711 24.8009C16.0772 24.361 16.5943 23.7951 17.2117 23.3746C18.2726 22.6524 19.16 21.702 20.2907 21.0771C20.5849 20.6092 21.1353 20.4377 21.4931 20.04C21.5894 19.9326 21.7441 19.8792 21.8662 19.7932C22.0438 19.6683 22.2188 19.54 22.3901 19.4068C23.0802 18.8707 23.7667 18.33 24.4578 17.7954C24.7497 17.57 25.0574 17.3644 25.345 17.1337C26.1572 16.4825 27.0168 15.8969 27.8579 15.2856C28.2954 14.9676 28.6788 14.5782 29.1942 14.3751C29.5542 13.8492 30.142 13.6053 30.624 13.2314C31.2067 12.7795 31.8066 12.3495 32.4019 11.9136C33.1707 11.3507 33.941 10.79 34.7131 10.2315C35.2033 9.87722 35.6963 9.52641 36.1911 9.17811C36.7909 8.75583 37.4047 8.35461 37.997 7.9198C38.8975 7.25905 39.8401 6.65547 40.7679 6.03234C41.9262 5.25423 43.0837 4.47488 44.2492 3.70755C44.8914 3.28477 45.5461 2.88055 46.2004 2.47658C46.9797 1.99537 47.7561 1.50765 48.5505 1.05177C49.1232 0.723275 49.7135 0.428884 50.2564 0.0454739C50.389 -0.0480591 50.6438 0.0316822 50.9216 0.0316822C50.8484 0.145527 50.8161 0.231286 50.7551 0.284196C50.5718 0.443679 50.377 0.590623 50.1521 0.770167C50.6395 0.997103 50.9567 0.334849 51.3615 0.578838C51.2353 0.704969 51.0992 0.84088 50.963 0.976792C50.9886 1.01716 51.0139 1.05754 51.0395 1.09791C51.1842 1.05603 51.3286 1.01415 51.5207 0.958486C51.5533 1.21025 51.5852 1.45624 51.6285 1.79452C51.4578 1.93043 51.2358 2.22883 50.9573 2.29754C50.6192 2.38079 50.5137 2.7978 50.1255 2.7632C50.0244 2.75417 50.0924 3.10573 49.8416 3.02073C49.5728 2.9292 49.7283 3.36452 49.4876 3.29606C49.2629 3.23212 49.2488 3.53077 49.1934 3.52876C48.8434 3.51723 48.7478 3.86152 48.4963 3.98138C48.2282 4.10927 47.9735 4.27778 47.7403 4.46284C47.5321 4.62784 47.3295 4.76676 47.059 4.80838C46.9634 4.82293 46.8122 4.92047 46.8064 4.98993C46.7874 5.22214 46.6437 5.18703 46.4902 5.22364C46.3799 5.24997 46.3109 5.43804 46.1986 5.4729C46.0677 5.51327 45.9185 5.47666 45.9561 5.68905C45.4892 5.71513 45.3739 6.36535 44.8558 6.31043C44.8054 6.30516 44.7246 6.35933 44.6966 6.40797C44.3681 6.97695 43.7572 7.19185 43.2675 7.55745C42.5538 8.09006 41.8414 8.62443 41.1245 9.15203C40.5493 9.57531 39.9763 10.0023 39.3855 10.4036C39.0715 10.6167 38.8438 10.9989 38.3847 10.9595C38.3531 10.9567 38.2977 11.0039 38.2852 11.0392C38.0342 11.7474 37.2184 11.7153 36.7851 12.1847C36.7127 12.2634 36.5885 12.3008 36.5309 12.3861C36.0176 13.1464 35.1597 13.4959 34.5072 14.0925C34.0283 14.5303 33.4683 14.8791 32.952 15.2771C32.3111 15.7708 31.6794 16.2763 31.0402 16.7718C30.9758 16.8217 30.8875 16.8423 30.8083 16.8704C30.1601 17.0996 29.7067 17.6179 29.153 17.9883C29.0312 18.07 28.9161 18.2074 28.8672 18.3438C28.7558 18.6548 28.467 18.8107 28.2317 18.8604C27.981 18.9128 27.8408 19.0389 27.6748 19.1816C27.3481 19.4625 26.9599 19.6809 26.7656 20.0931C26.173 20.4632 25.6547 20.9379 25.1178 21.3743C24.6757 21.7338 24.1527 22.0122 23.8016 22.4961C23.5709 22.8136 23.1905 22.9789 22.8322 23.1115C22.6827 23.1669 22.5398 23.199 22.4427 23.3252C22.3379 23.4611 22.2765 23.6537 22.1428 23.7384C21.9961 23.8312 21.9156 23.9473 21.8101 24.0717C21.5134 24.4212 21.1857 24.7592 20.6706 24.7715C20.6295 24.7725 20.5811 24.7833 20.5498 24.8074C20.3243 24.9814 20.0826 25.1401 19.8855 25.3428C19.656 25.578 19.3456 25.7517 19.2486 26.1018C19.238 26.1399 19.1891 26.1695 19.1545 26.1989C18.8679 26.4413 18.5841 26.6876 18.2919 26.923C17.9993 27.1588 17.7786 27.4607 17.4451 27.6718C17.1399 27.8646 16.8541 28.1149 16.5491 28.3265C16.3689 28.4381 16.0945 28.5096 16.0263 28.6691C15.8199 29.1518 15.1908 29.1656 15.017 29.6531C14.5461 29.7729 14.3375 30.2443 13.9375 30.4602C13.8259 30.5204 13.6692 30.5603 13.6168 30.6556C13.3347 31.1701 12.7113 31.3316 12.4254 31.8347C12.0202 31.9259 11.8206 32.2517 11.5656 32.5353C11.374 32.7484 11.0756 32.8653 10.8248 33.0248C10.812 33.3944 10.4186 33.424 10.2574 33.6607Z" fill="#726C65"/>
<path fill-rule="evenodd" clip-rule="evenodd" d="M54.1629 7.94657C54.3821 7.89817 54.6013 7.84977 54.9217 7.77881C54.7989 7.91848 54.7575 7.96587 54.7026 8.02831C54.7848 8.0559 54.8623 8.08198 54.9428 8.10881C54.9987 8.32571 55.0769 8.58073 54.8269 8.69608C54.6991 8.75501 54.4969 8.65345 54.3094 8.69934C54.3939 8.74047 54.4786 8.78159 54.5734 8.82748C54.2918 9.16776 53.9154 9.22343 53.5032 9.16325C53.4876 9.31721 53.4766 9.42504 53.4611 9.577C53.1649 9.32323 52.9385 9.63718 52.6087 9.61286C52.6812 9.75479 52.7276 9.84606 52.7742 9.93734C52.6674 10.0071 52.5518 10.1099 52.4166 10.1643C52.2236 10.242 52.0851 10.5825 51.8045 10.312C51.7913 10.2994 51.7348 10.3142 51.7118 10.3328C51.6586 10.3752 51.622 10.4476 51.5638 10.4722C51.3502 10.562 51.0934 10.5918 50.9244 10.731C50.7747 10.8544 50.7373 11.1051 50.6167 11.2764C50.5467 11.3757 50.4189 11.4462 50.3028 11.4981C50.1794 11.5535 49.723 11.7802 49.6611 11.9291C49.5934 12.0911 49.4875 12.0237 49.3935 12.0522C49.2731 12.0888 49.1415 12.1199 49.0447 12.1937C48.9712 12.2496 48.9449 12.3679 48.901 12.4522C48.7849 12.3496 48.6718 12.2493 48.474 12.0743C48.5026 12.3429 48.248 12.3827 48.3646 12.644C48.4338 12.7992 48.0063 13.0352 47.7468 12.9314C47.5692 12.8602 47.583 13.0146 47.4995 13.0372C47.6397 13.4507 47.2703 13.4783 47.0542 13.6145C46.9474 13.6819 46.6179 13.9051 46.5715 13.9628C46.5306 14.0127 46.4782 14.053 46.4351 14.0937C46.3794 14.0485 46.3325 13.9966 46.2746 13.9685C46.2412 13.9525 46.1893 13.9751 46.1178 13.9836C46.16 14.0741 46.1983 14.1571 46.2342 14.2343C46.2126 14.282 46.2061 14.3369 46.176 14.3562C45.9431 14.5059 45.6895 14.6283 45.4726 14.7978C44.9526 15.204 44.4505 15.6331 43.9387 16.0501C43.3033 16.5674 42.6539 17.0659 42.0651 17.6401C41.7897 17.909 41.6197 18.1033 41.535 18.499C41.2717 18.3623 40.973 18.3686 40.7446 18.1331C40.543 17.9253 40.3476 18.1723 40.1209 18.2583C40.0096 17.768 40.4271 17.68 40.6207 17.4513C40.556 17.3869 40.4916 17.3224 40.4324 17.263C40.2972 17.3605 40.1628 17.4571 39.9961 17.5772C39.9675 17.4581 39.9211 17.3811 39.9429 17.3382C40.1897 16.852 40.5949 16.5027 40.9984 16.1547C41.1127 16.0564 41.2534 15.9879 41.3642 15.8863C42.2516 15.0724 43.2339 14.3848 44.2056 13.6772C45.1128 13.0167 46.0707 12.4349 46.9749 11.7741C47.2367 11.5831 47.5941 11.5437 47.7841 11.2481C48.663 10.9504 49.2563 10.161 50.1633 9.90725C50.287 10.0963 50.1375 10.1164 49.9702 10.1663C49.8707 10.1961 49.9086 10.3466 49.7523 10.4291C49.0936 10.7776 48.4747 11.2019 47.8436 11.6021C47.8017 11.6287 47.7776 11.6836 47.6635 11.8306C47.8591 11.7621 47.9303 11.7235 48.0051 11.7132C48.2736 11.6776 48.3882 11.3922 48.6788 11.3448C48.9103 11.307 49.1305 11.1024 49.3213 10.9331C49.729 10.5715 50.2418 10.397 50.6977 10.1221C51.0056 9.93659 51.2674 9.67906 51.6313 9.56923C51.7724 9.5266 51.8615 9.3132 51.9743 9.17754C52.2085 9.04088 52.448 8.91224 52.6752 8.76479C52.8838 8.62988 53.1338 8.61058 53.3199 8.37311C53.5024 8.1399 53.9107 8.15871 54.1629 7.94657Z" fill="#726C65"/>
<path fill-rule="evenodd" clip-rule="evenodd" d="M25.713 26.4116C25.9266 26.2667 26.2418 26.1659 26.3288 25.9658C26.4512 25.6844 26.6814 25.6032 26.8795 25.4565C27.0851 25.3043 27.3153 25.1862 27.527 25.0422C27.7421 24.8961 27.9708 24.7591 28.1529 24.5778C28.545 24.1877 28.9891 23.8699 29.4483 23.5693C29.5528 23.5003 29.68 23.466 29.7875 23.4003C29.8946 23.3346 30.0368 23.2706 30.0819 23.1696C30.3061 22.6681 30.7868 22.4807 31.2068 22.2282C31.4488 22.0828 31.6096 22.1575 31.8698 22.4281C31.7791 22.7616 31.3611 22.8536 31.2856 23.214C31.2738 23.2696 31.0544 23.2824 30.9308 23.3138C30.7419 23.3622 30.8718 23.7107 30.6148 23.6703C30.3884 23.6347 30.3939 23.8078 30.3079 23.9176C30.2813 23.9517 30.1258 23.8855 30.0024 23.8597C29.9312 24.0013 29.84 24.1819 29.7499 24.3607H29.5217C29.3635 24.5515 29.2434 24.8316 29.0822 24.8582C28.8397 24.8981 28.8999 25.2928 28.6032 25.1864C28.5664 25.1734 28.4859 25.2281 28.452 25.2717C28.3876 25.3552 28.3585 25.5157 28.2865 25.534C28.0054 25.606 27.9018 25.9207 27.6551 25.9924C27.1847 26.129 26.8712 26.5077 26.4484 26.7125C26.3637 26.7534 26.2729 26.8806 26.2694 26.9713C26.2576 27.2544 26.1092 27.3121 25.8614 27.3916C25.6731 27.452 25.4928 27.6933 25.4118 27.8954C25.3032 28.1649 24.9579 27.9084 24.8845 28.2021C24.8479 28.349 24.7659 28.5749 24.5439 28.3332C24.4795 28.3976 24.3576 28.4646 24.3599 28.5263C24.3737 28.8543 24.1034 28.6818 23.9755 28.7628C23.8767 28.8513 24.1911 28.9192 23.9712 29.0614C23.6392 29.2758 23.3774 29.5993 23.0424 29.8062C22.9203 29.8816 22.8576 29.9275 22.8127 30.0547C22.7859 30.1301 22.672 30.2435 22.6251 30.2314C22.2309 30.1304 22.0529 30.423 21.824 30.6319C21.8154 30.6397 21.7299 30.5632 21.6635 30.5133C21.5584 30.6612 21.6956 30.9865 21.3538 30.9827C21.3061 30.9822 21.2414 31.0645 21.2114 31.1224C20.9237 31.6723 20.9285 31.6771 20.442 32.0214C20.3543 32.0836 20.4001 32.4589 20.1381 32.1625C20.1348 32.1588 19.9854 32.2398 19.9749 32.2947C19.8853 32.7608 19.4673 32.9484 19.1857 33.2506C18.8176 33.1964 18.7153 33.5492 18.4851 33.7062C18.3339 33.8093 18.1646 33.8454 18.1674 34.1205C18.1694 34.3133 17.9149 34.4018 17.6636 34.313C17.7572 34.1648 17.8489 34.0194 17.9668 33.8326C17.8645 33.8404 17.8193 33.8303 17.8028 33.8476C17.7143 33.9397 17.6112 33.9956 17.527 33.8727C17.4984 33.8308 17.5435 33.6799 17.5947 33.6518C17.9292 33.469 18.0776 33.1425 18.2597 32.8403C18.5315 32.8612 18.5315 32.8612 18.6298 33.0745C18.6458 33.0846 18.6759 33.1039 18.6762 33.1034C18.8023 32.9168 19.1867 32.9825 19.1358 32.5615C18.9864 32.6292 18.9071 32.7536 18.7261 32.9015C18.7697 32.7345 18.77 32.6274 18.8216 32.5605C18.9016 32.4569 19.0109 32.3724 19.1188 32.2949C19.3269 32.1452 19.4856 31.9424 19.5456 31.7094C19.5955 31.5163 19.6429 31.3952 19.845 31.326C19.9495 31.2901 20.0195 31.1532 20.1053 31.062C20.42 31.1307 20.501 30.7269 20.7821 30.7272C20.7665 30.3654 21.1226 30.3292 21.3137 30.2304C21.5745 30.0955 21.6201 29.8047 21.8854 29.679C22.1918 29.5343 22.4551 29.2876 22.7164 29.0612C23.2029 28.6389 23.673 28.198 24.154 27.7692C24.2154 27.7143 24.3077 27.6945 24.3707 27.6406C24.5399 27.4962 24.6939 27.3329 24.8674 27.194C25.0068 27.0822 25.1377 26.9219 25.2593 26.8485C25.4572 26.7288 25.6066 26.606 25.713 26.4116Z" fill="#726C65"/>
<path fill-rule="evenodd" clip-rule="evenodd" d="M16.2755 34.7548C16.5318 34.8165 16.6138 34.5808 16.7703 34.4692C16.9009 34.3759 16.9521 34.1289 17.2505 34.2566C17.1213 34.3275 17.013 34.3872 16.8139 34.497C17.0499 34.6352 17.1609 34.7007 17.2597 34.7586C17.0644 35.062 16.673 35.1678 16.8886 35.6904C16.7111 35.5277 16.6637 35.4838 16.5897 35.4161C16.5729 35.8953 16.3224 36.1463 15.8372 36.1631C15.8979 36.2235 15.93 36.2556 16.0019 36.3278C15.6634 36.6663 15.3101 36.9943 14.9869 37.3499C14.6749 37.6927 14.2592 37.9415 14.0565 38.3911C14.0247 38.4623 13.8228 38.457 13.6769 38.4924C13.7218 38.5488 13.7576 38.5942 13.795 38.6411C13.705 38.8552 13.465 38.9432 13.3777 39.1993C13.2782 39.4914 13.1212 39.4548 12.8286 39.1892C12.7724 39.1381 12.6142 39.1995 12.4597 39.2128C12.476 39.1576 12.478 39.0491 12.5324 38.9859C12.6357 38.866 12.7674 38.771 12.7193 38.5844C12.8888 38.3961 13.2416 38.3316 13.1413 37.959C13.1383 37.9482 13.1691 37.9161 13.1872 37.9136C13.616 37.8524 13.71 37.4043 14.0167 37.1854C14.3632 36.9379 14.5947 36.5327 14.8918 36.2107C15.3459 35.7187 15.8136 35.2395 16.2755 34.7548Z" fill="#726C65"/>
<path fill-rule="evenodd" clip-rule="evenodd" d="M25.7131 26.4114C25.6067 26.6057 25.4573 26.7286 25.2594 26.8482C25.1378 26.9217 25.0069 27.0819 24.8675 27.1937C24.694 27.3327 24.54 27.4959 24.3708 27.6403C24.3078 27.6943 24.2155 27.7141 24.1541 27.769C23.6731 28.1978 23.203 28.6386 22.7165 29.0609C22.4552 29.2873 22.1919 29.5341 21.8855 29.6788C21.6202 29.8044 21.5745 30.0953 21.3138 30.2302C21.1227 30.329 20.7666 30.3651 20.7821 30.7269C20.501 30.7267 20.42 31.1304 20.1053 31.0617C20.1051 30.6572 20.4441 30.4443 20.6981 30.2996C21.1287 30.0541 21.4 29.6479 21.8163 29.3876C22.3007 29.0847 22.6826 28.6221 23.127 28.2502C23.8514 27.6441 24.5862 27.0501 25.3289 26.4668C25.4169 26.3976 25.5829 26.4274 25.7131 26.4114Z" fill="#726C65"/>
<path fill-rule="evenodd" clip-rule="evenodd" d="M16.2756 34.7548C15.8137 35.2396 15.346 35.7188 14.8919 36.2108C14.5947 36.5327 14.3633 36.938 14.0167 37.1855C13.7101 37.4044 13.616 37.8525 13.1872 37.9137C13.1692 37.9162 13.1383 37.9483 13.1413 37.959C13.2416 38.3317 12.8888 38.3961 12.7193 38.5844C12.5526 38.7146 12.3861 38.8447 12.1985 38.9912C12.1897 38.9109 12.1523 38.8196 12.1802 38.7903C12.961 37.9651 13.5576 36.9711 14.4558 36.2599C14.615 36.134 14.5163 35.8625 14.8111 35.8261C14.943 35.8098 15.0298 35.5309 15.163 35.3965C15.2999 35.2579 15.4764 35.1591 15.6198 35.0257C15.753 34.9015 15.8606 34.7501 15.988 34.6192C16.1264 34.477 16.2703 34.3393 16.4203 34.2092C16.5787 34.0715 16.7473 33.9454 16.9827 33.7571C16.8917 34.2651 16.4155 34.3935 16.2756 34.7548Z" fill="#726C65"/>
<path fill-rule="evenodd" clip-rule="evenodd" d="M10.2573 33.6608C10.4186 33.4241 10.812 33.3945 10.8248 33.0249C11.0755 32.8654 11.374 32.7485 11.5655 32.5354C11.8206 32.2518 12.0202 31.9261 12.4254 31.8348C12.7112 31.3318 13.3346 31.1703 13.6167 30.6557C13.6691 30.5604 13.8259 30.5205 13.9375 30.4604C14.3374 30.2445 14.5461 29.773 15.017 29.6532C15.1908 29.1657 15.8199 29.1519 16.0263 28.6692C16.0945 28.5097 16.3688 28.4382 16.5491 28.3267C16.5175 28.4265 16.5163 28.5614 16.4486 28.6205C16.1858 28.851 15.9987 29.1544 15.6519 29.3109C15.3377 29.4526 15.1762 29.8021 14.8502 29.9904C14.4189 30.2397 14.0744 30.6399 13.694 30.9767C13.2797 31.3435 12.886 31.737 12.4492 32.074C11.8038 32.5723 11.1801 33.0918 10.5856 33.6608H10.2573Z" fill="#726C65"/>
<path fill-rule="evenodd" clip-rule="evenodd" d="M54.1628 7.9465C53.9106 8.15864 53.5023 8.13984 53.3198 8.37304C53.1337 8.61051 52.8837 8.62982 52.6751 8.76473C52.4479 8.91217 52.2084 9.04081 51.9742 9.17748C51.5803 9.23891 51.3192 9.55311 50.9724 9.70708C50.7824 9.79158 50.6126 9.92198 50.3425 10.0875C50.3714 9.90242 50.3536 9.77854 50.4047 9.73391C50.5815 9.57919 50.7716 9.43275 50.9762 9.31765C51.8004 8.85375 52.6327 8.40338 53.4607 7.94575C53.6455 7.84369 53.8183 7.71781 54.0086 7.62904C54.1332 7.57086 54.2797 7.55958 54.4765 7.51294C54.3351 7.70853 54.2491 7.82764 54.1628 7.9465Z" fill="#726C65"/>
</g>
</svg>
