<svg width="56" height="69" viewBox="0 0 56 69" fill="none" xmlns="http://www.w3.org/2000/svg">
<path fill-rule="evenodd" clip-rule="evenodd" d="M2.17402 18.6199C1.75038 17.0388 1.28775 15.4653 0.916828 13.8715C0.680427 12.8577 0.942215 11.8528 1.34767 10.9196C1.60543 10.3266 2.07423 9.87147 2.79519 9.86322C3.74457 9.85349 3.26703 10.5312 3.40997 11.0002C6.17131 20.073 9.98852 28.7413 13.626 37.4801C14.4687 39.5051 15.0689 41.6404 15.637 43.7635C15.8143 44.4276 16.2346 45.4376 15.0268 45.8231C14 46.1507 13.5023 45.5019 13.074 44.7654C10.8509 40.9401 9.2675 36.8138 7.49512 32.7799C5.46558 28.1623 3.83786 23.3873 2.17402 18.6199Z" fill="#D99655"/>
<path fill-rule="evenodd" clip-rule="evenodd" d="M35.2619 60.6055C35.2323 59.5549 35.4643 58.3343 36.3313 57.4694C40.5268 53.2842 44.9008 49.2872 49.5182 45.5704C50.7357 44.59 50.6118 45.1536 51.4777 46.347C53.5936 49.262 51.2191 50.7071 49.9152 52.4711C47.6119 55.5866 44.775 58.1795 41.5679 60.3628C40.7335 60.9304 39.9208 61.5309 39.1126 62.1346C36.8727 63.8055 36.1861 63.5657 35.2619 60.6055Z" fill="#D99655"/>
<path fill-rule="evenodd" clip-rule="evenodd" d="M28.0054 54.4043C25.7697 52.2237 26.5505 49.8097 26.9658 47.3447C27.7443 42.7173 29.3981 38.3597 30.808 33.9243C31.0642 33.1188 31.2685 31.8537 32.2029 31.9386C33.1181 32.0215 33.2776 33.3042 33.5271 34.1656C33.8976 35.4407 33.3981 36.6863 33.0868 37.8743C31.7844 42.8587 30.3638 47.8129 28.9678 52.7728C28.8037 53.3579 28.6706 53.9972 28.0054 54.4043Z" fill="#D99655"/>
</svg>
